<?xml version="1.0" encoding="iso-8859-1"?>
<!-- Generator: Adobe Illustrator 19.0.0, SVG Export Plug-In . SVG Version: 6.00 Build 0)  -->
<svg version="1.1" id="Capa_1" xmlns="http://www.w3.org/2000/svg" xmlns:xlink="http://www.w3.org/1999/xlink" x="0px" y="0px"
	 viewBox="-53 -53 612 612" preserveAspectRatio="xMaxYMax meet" style="enable-background:new 0 0 512 512;" xml:space="preserve">
   <style>svg { background-color: rgba(255, 255, 255, .3); }</style>
<g>
	<g>
		<g>
			<path fill="white" d="M256,64c-41.167,0-74.667,33.5-74.667,74.667c0,41.167,33.5,74.667,74.667,74.667s74.667-33.5,74.667-74.667
				C330.667,97.5,297.167,64,256,64z M256,192c-29.406,0-53.333-23.927-53.333-53.333S226.594,85.333,256,85.333
				s53.333,23.927,53.333,53.333S285.406,192,256,192z"/>
			<path fill="white" d="M256,106.667c-17.646,0-32,14.354-32,32c0,17.646,14.354,32,32,32s32-14.354,32-32
				C288,121.021,273.646,106.667,256,106.667z M256,149.333c-5.885,0-10.667-4.781-10.667-10.667
				c0-5.885,4.781-10.667,10.667-10.667s10.667,4.781,10.667,10.667C266.667,144.552,261.885,149.333,256,149.333z"/>
			<path fill="white" d="M256,0C114.844,0,0,114.844,0,256s114.844,256,256,256s256-114.844,256-256S397.156,0,256,0z M47.238,149.333h91.428
				c5.896,0,10.667-4.771,10.667-10.667c0-5.896-4.771-10.667-10.667-10.667H59.572C101.504,63.872,173.827,21.333,256,21.333
				c62.132,0,118.542,24.441,160.565,64h-21.898C388.771,85.333,384,90.104,384,96s4.771,10.667,10.667,10.667h42.21
				c10.815,13.078,20.074,27.44,27.885,42.667h-70.095c-5.896,0-10.667,4.771-10.667,10.667s4.771,10.667,10.667,10.667h79.702
				c9.147,23.322,14.57,48.428,15.758,74.667H21.874C23.434,210.885,32.336,178.376,47.238,149.333z M474.369,341.333H309.333
				c-5.896,0-10.667,4.771-10.667,10.667c0,5.896,4.771,10.667,10.667,10.667h155.428c-7.811,15.227-17.07,29.589-27.885,42.667
				h-106.21c-5.896,0-10.667,4.771-10.667,10.667c0,5.896,4.771,10.667,10.667,10.667h85.898c-42.023,39.559-98.434,64-160.565,64
				c-82.173,0-154.496-42.539-196.428-106.667h57.762c5.896,0,10.667-4.771,10.667-10.667c0-5.896-4.771-10.667-10.667-10.667
				H47.238C40.298,349.142,34.66,334.88,30.431,320H160c5.896,0,10.667-4.771,10.667-10.667c0-5.896-4.771-10.667-10.667-10.667
				H25.41c-1.928-10.438-3.044-21.133-3.536-32h468.253C488.939,292.905,483.516,318.012,474.369,341.333z"/>
		</g>
	</g>
</g>
<g>
</g>
<g>
</g>
<g>
</g>
<g>
</g>
<g>
</g>
<g>
</g>
<g>
</g>
<g>
</g>
<g>
</g>
<g>
</g>
<g>
</g>
<g>
</g>
<g>
</g>
<g>
</g>
<g>
</g>
</svg>
